<?xml version="1.0" encoding="UTF-8"?>
<svg id="Layer_1" data-name="Layer 1" xmlns="http://www.w3.org/2000/svg" width="987.906" height="578.561" viewBox="0 0 987.906 578.561">
  <g>
    <path d="M19.375,79.53c-3.571,3.571-5.321,8.264-5.279,12.944-.042,4.68,1.708,9.373,5.279,12.944l67.27,67.27c7.06,7.06,18.505,7.06,25.565,0,7.06-7.06,7.06-18.505,0-25.565l-34.703-34.703c13.086,1.2,25.824,3.032,37.983,5.499,62.525,12.688,112.057,43.313,139.476,86.233l32.247-20.6c-33.051-51.738-91.335-88.365-164.112-103.135-15.03-3.051-30.823-5.187-47.003-6.482l36.112-36.112c7.06-7.06,7.06-18.505,0-25.565-7.06-7.06-18.505-7.059-25.565,0L19.375,79.53Z"/>
    <path d="M252.848,213.773l-3.749-5.87c-26.397-41.315-74.338-70.848-134.993-83.157-5.662-1.15-11.498-2.164-17.462-3.04l20.49,20.493c4.731,4.73,7.335,11.019,7.335,17.707s-2.604,12.978-7.335,17.708c-4.729,4.729-11.017,7.334-17.707,7.334s-12.978-2.604-17.707-7.335L14.451,110.344c-4.783-4.779-7.382-11.148-7.319-17.934-.063-6.654,2.536-13.023,7.319-17.804L81.72,7.335c4.731-4.73,11.019-7.335,17.707-7.335s12.978,2.605,17.71,7.335c4.729,4.729,7.333,11.018,7.333,17.707s-2.604,12.978-7.335,17.708l-25.673,25.675c11.463,1.307,22.523,3.036,33.025,5.167,74.645,15.149,134.519,52.868,168.597,106.212l3.752,5.869-43.987,28.1ZM58.964,103.725l19.182,1.759c13.419,1.231,26.449,3.118,38.731,5.609,61.564,12.494,111.001,42.036,140.086,83.522l20.523-13.112c-32.612-47.074-87.623-80.428-155.769-94.258-14.415-2.925-29.948-5.067-46.172-6.365l-15.035-1.204,46.776-46.776c2.098-2.099,3.254-4.889,3.254-7.858s-1.156-5.759-3.254-7.856c-4.195-4.201-11.514-4.198-15.715,0L24.301,84.456c-2.117,2.115-3.265,4.94-3.238,7.953-.027,3.144,1.121,5.968,3.238,8.084l67.269,67.27c4.201,4.198,11.517,4.198,15.713,0,2.1-2.099,3.257-4.889,3.257-7.858s-1.156-5.759-3.254-7.858l-48.321-48.323Z"/>
  </g>
  <g>
    <path d="M441.412,96.64c-77.016,21.549-135.919,89.243-146.575,168.444-1.174,8.727-1.759,17.089-2.325,25.173-.92,13.138-1.787,25.547-5.091,37.768-8.781,32.464-26.282,61.156-50.613,82.977-36.09,32.366-87.617,50.886-153.145,55.049-4.525.287-9.157.5-13.848.65l35.265-35.265c7.06-7.059,7.06-18.505,0-25.565-7.06-7.06-18.505-7.06-25.565,0L12.245,473.142c-3.571,3.571-5.321,8.264-5.279,12.944-.042,4.68,1.708,9.373,5.279,12.944l67.27,67.271c7.06,7.059,18.505,7.059,25.565,0,7.06-7.06,7.06-18.505,0-25.565l-35.748-35.748c5.676-.163,11.285-.402,16.755-.75,74.318-4.719,133.622-26.505,176.268-64.75,29.848-26.765,51.288-61.854,62.002-101.473,4.279-15.819,5.32-30.698,6.327-45.086.547-7.83,1.065-15.226,2.076-22.741,8.646-64.274,56.455-119.209,118.962-136.699,63.566-17.783,133.676,5.179,174.459,57.141l30.101-23.625c-50.227-63.992-136.576-92.27-214.87-70.365Z"/>
    <path d="M92.299,578.561c-6.69,0-12.978-2.605-17.707-7.335L7.32,503.955C2.54,499.175-.059,492.808.001,486.025c-.06-6.661,2.539-13.027,7.316-17.808l67.275-67.27c4.729-4.73,11.017-7.335,17.707-7.335s12.976,2.605,17.707,7.334c9.762,9.766,9.762,25.653,0,35.415l-22.441,22.441c61.86-4.586,110.492-22.403,144.594-52.985,23.325-20.923,40.11-48.452,48.539-79.611,3.123-11.561,3.97-23.637,4.865-36.423.574-8.214,1.167-16.684,2.373-25.629,11.019-81.921,71.943-151.935,151.6-174.223h0c80.985-22.652,170.279,6.593,222.227,72.772l4.302,5.48-41.062,32.225-4.302-5.48c-39.06-49.769-106.207-71.769-167.101-54.733-59.871,16.752-105.657,69.366-113.936,130.92-.982,7.303-1.491,14.586-2.03,22.298-1.031,14.72-2.095,29.941-6.554,46.42-11.063,40.921-33.221,77.174-64.075,104.839-43.838,39.316-104.56,61.696-180.476,66.517-.356.022-.716.045-1.077.067l24.555,24.555c9.762,9.764,9.762,25.65,0,35.414-4.731,4.73-11.019,7.335-17.707,7.335ZM92.299,407.542c-2.968,0-5.76,1.156-7.858,3.254l-67.272,67.27c-2.114,2.115-3.265,4.942-3.238,7.958-.027,3.138,1.124,5.965,3.24,8.081l67.269,67.27c2.098,2.098,4.889,3.254,7.858,3.254s5.757-1.156,7.858-3.255c4.332-4.332,4.332-11.381,0-15.714l-47.173-47.171,16.148-.465c5.999-.173,11.4-.414,16.515-.739,72.716-4.617,130.604-25.808,172.058-62.985,28.846-25.864,49.568-59.788,59.928-98.104,4.103-15.17,5.121-29.702,6.103-43.755.555-7.941,1.08-15.441,2.122-23.184,9.009-66.99,58.835-124.248,123.987-142.479,64.01-17.903,134.383,3.831,177.399,54.159l19.16-15.035c-49.042-57.979-129.741-83.087-203.113-62.555l-1.877-6.708,1.877,6.708c-74.376,20.809-131.26,86.179-141.55,162.665-1.145,8.504-1.722,16.747-2.28,24.72-.944,13.505-1.837,26.239-5.316,39.11-9.131,33.764-27.35,63.621-52.686,86.345-37.283,33.436-90.225,52.551-157.355,56.816-4.462.283-9.194.505-14.067.66l-17.595.562,47.715-47.713c4.332-4.333,4.332-11.382-.003-15.715-2.098-2.098-4.887-3.254-7.855-3.254Z"/>
  </g>
  <g>
    <path d="M546.494,481.921c77.016-21.549,135.919-89.243,146.575-168.444,1.174-8.727,1.759-17.089,2.325-25.173.92-13.138,1.787-25.547,5.091-37.768,8.781-32.464,26.282-61.156,50.613-82.977,36.09-32.366,87.617-50.886,153.145-55.049,4.525-.287,9.157-.5,13.848-.65l-35.265,35.265c-7.06,7.059-7.06,18.505,0,25.565,7.06,7.06,18.505,7.06,25.565,0l67.27-67.27c3.571-3.571,5.321-8.264,5.279-12.944.042-4.68-1.708-9.373-5.279-12.944l-67.27-67.271c-7.06-7.059-18.505-7.059-25.565,0-7.06,7.06-7.06,18.505,0,25.565l35.748,35.748c-5.676.163-11.285.402-16.755.75-74.318,4.719-133.622,26.505-176.268,64.75-29.848,26.765-51.288,61.854-62.002,101.473-4.279,15.819-5.32,30.698-6.327,45.086-.547,7.83-1.065,15.226-2.076,22.741-8.646,64.274-56.455,119.209-118.962,136.699-63.566,17.783-133.676-5.179-174.459-57.141l-30.101,23.625c50.227,63.992,136.576,92.27,214.87,70.365Z"/>
    <path d="M492.823,496.209c-63.816,0-126.449-29.1-166.679-80.353l-4.299-5.478,41.057-32.227,4.302,5.48c39.065,49.773,106.223,71.772,167.104,54.734,59.869-16.751,105.654-69.364,113.936-130.921.982-7.299,1.491-14.584,2.03-22.297,1.031-14.72,2.095-29.941,6.552-46.418,11.066-40.922,33.224-77.176,64.075-104.842,43.84-39.316,104.56-61.694,180.479-66.515.356-.022.716-.045,1.077-.067l-24.555-24.555c-4.731-4.73-7.335-11.019-7.335-17.707s2.604-12.978,7.335-17.708c9.762-9.762,25.652-9.762,35.414,0l67.269,67.272c4.78,4.778,7.382,11.146,7.322,17.93.06,6.662-2.541,13.029-7.322,17.808l-67.269,67.269c-4.729,4.731-11.019,7.337-17.707,7.337s-12.978-2.605-17.707-7.337c-4.731-4.729-7.335-11.018-7.335-17.707s2.604-12.977,7.335-17.707l22.438-22.44c-61.863,4.586-110.492,22.403-144.592,52.985-23.325,20.92-40.11,48.449-48.539,79.611-3.132,11.573-3.972,23.649-4.865,36.433-.574,8.205-1.167,16.674-2.373,25.618-11.019,81.921-71.943,151.936-151.6,174.224h0c-18.267,5.11-36.959,7.58-55.548,7.58ZM341.503,412.655c49.042,57.979,129.736,83.085,203.113,62.558l1.877,6.708-1.877-6.708c74.376-20.809,131.26-86.18,141.55-162.666,1.145-8.503,1.722-16.745,2.28-24.718.941-13.492,1.831-26.226,5.316-39.112,9.131-33.765,27.35-63.623,52.686-86.345,37.278-33.433,90.219-52.55,157.355-56.816,4.432-.28,9.164-.502,14.064-.658l17.595-.562-47.712,47.712c-2.098,2.099-3.254,4.891-3.254,7.858s1.156,5.759,3.254,7.856c4.201,4.201,11.514,4.2,15.715.001l67.269-67.27c2.117-2.117,3.268-4.942,3.24-7.957.027-3.138-1.124-5.964-3.24-8.079l-67.269-67.272c-4.332-4.329-11.384-4.333-15.715.001-2.098,2.098-3.254,4.888-3.254,7.856s1.156,5.759,3.254,7.858l47.173,47.171-16.148.465c-6.035.173-11.436.415-16.513.739-72.719,4.617-130.609,25.808-172.064,62.984-28.843,25.865-49.565,59.79-59.928,98.107-4.1,15.167-5.118,29.7-6.1,43.753-.555,7.942-1.08,15.443-2.122,23.184-9.011,66.99-58.837,124.248-123.987,142.479-64.001,17.899-134.38-3.83-177.402-54.16l-19.157,15.034Z"/>
  </g>
  <g>
    <path d="M975.66,499.03c3.571-3.571,5.321-8.264,5.279-12.944.042-4.68-1.708-9.373-5.279-12.944l-67.27-67.27c-7.06-7.06-18.505-7.06-25.565,0-7.06,7.06-7.06,18.505,0,25.565l34.703,34.703c-13.086-1.2-25.824-3.032-37.983-5.499-62.525-12.688-112.057-43.313-139.476-86.233l-32.247,20.6c33.051,51.738,91.335,88.365,164.112,103.135,15.03,3.051,30.823,5.187,47.003,6.482l-36.112,36.112c-7.06,7.06-7.06,18.505,0,25.565,7.06,7.06,18.505,7.059,25.565,0l67.27-67.271Z"/>
    <path d="M895.608,578.547c-6.413,0-12.826-2.439-17.707-7.32-4.731-4.73-7.335-11.019-7.335-17.708s2.604-12.978,7.335-17.708l25.676-25.676c-11.471-1.306-22.531-3.035-33.028-5.165-74.648-15.151-134.522-52.872-168.595-106.213l-3.752-5.87,43.987-28.098,3.749,5.87c26.395,41.315,74.335,70.848,134.99,83.156,5.659,1.15,11.495,2.164,17.465,3.042l-20.493-20.494c-4.731-4.729-7.335-11.018-7.335-17.707s2.604-12.977,7.335-17.707c9.762-9.762,25.652-9.764,35.414-.001l67.269,67.272c4.78,4.778,7.382,11.146,7.322,17.93.06,6.662-2.541,13.03-7.322,17.808l-67.269,67.27c-4.881,4.881-11.294,7.322-17.707,7.322ZM717.553,397.056c32.606,47.073,87.618,80.428,155.766,94.259,14.404,2.924,29.94,5.065,46.175,6.365l15.035,1.205-46.779,46.775c-2.098,2.099-3.254,4.889-3.254,7.858s1.156,5.759,3.254,7.856c4.332,4.332,11.384,4.332,15.715,0l67.269-67.27c2.117-2.115,3.268-4.941,3.24-7.957.027-3.138-1.124-5.964-3.24-8.079l-67.269-67.272c-4.332-4.329-11.384-4.333-15.715.001-2.098,2.098-3.254,4.889-3.254,7.856s1.156,5.759,3.254,7.856l48.327,48.327-19.184-1.76c-13.438-1.234-26.468-3.121-38.733-5.61-61.564-12.493-111.001-42.034-140.083-83.52l-20.523,13.11Z"/>
  </g>
</svg>